<?xml version="1.0" standalone="no"?><!DOCTYPE svg PUBLIC "-//W3C//DTD SVG 1.1//EN" "http://www.w3.org/Graphics/SVG/1.1/DTD/svg11.dtd"><svg t="1751337326572" class="icon" viewBox="0 0 1024 1024" version="1.1" xmlns="http://www.w3.org/2000/svg" p-id="56483" width="32" height="32" xmlns:xlink="http://www.w3.org/1999/xlink"><path d="M552.228571 179.712v664.576l68.699429-68.717714a36.571429 36.571429 0 0 1 51.712 51.730285l-129.28 129.28a37.229714 37.229714 0 0 1-0.950857 0.914286 36.48 36.48 0 0 1-26.770286 11.648c-9.014857 0-17.261714-3.254857-23.643428-8.667428a36.827429 36.827429 0 0 1-4.571429-3.876572l-129.28-129.298286a36.571429 36.571429 0 1 1 51.712-51.730285L479.085714 844.8V179.218286l-69.211428 69.211428a36.571429 36.571429 0 1 1-51.712-51.730285l129.28-129.28c1.462857-1.462857 2.980571-2.742857 4.571428-3.894858 6.381714-5.412571 14.628571-8.667429 23.643429-8.667428 10.569143 0 20.096 4.48 26.770286 11.648l0.932571 0.914286 129.298286 129.28a36.571429 36.571429 0 1 1-51.712 51.730285l-68.717715-68.717714z" p-id="56484" fill="#333333"></path></svg>